<svg id="Layer_1" xmlns="http://www.w3.org/2000/svg" width="500" height="150.8" viewBox="0 0 500 150.8"><style>.st0{fill:#010101;}</style><title>logo full</title><g id="Page-1"><g id="logo"><path class="st0" d="M148.9 73.8c-.4-24.6-14.1-48.5-35.3-61.1C96.9 2.3 75.8-.5 56.8 4.3 28.2 11.5 5.4 37.4 2.5 66.9c-3.6 27.9 10.5 56.9 34.6 71.2 23.6 14.8 55.7 14.2 78.8-1.4 20.8-13.5 33.7-38.1 33-62.9zM79.5 138c-33.4 3.3-65.7-25-66.6-58.5-2.5-27.2 15.4-54.1 41-63.1 35.9-14.4 80 12.2 83.7 50.7 5.8 34.6-23 69.8-58.1 70.9z"/><path id="Shape_3_" class="st0" d="M57.5 71.7c16.1-13.2 31.9-26.8 48.3-39.5-8.6 13.3-17.5 26.3-26.1 39.6-7.4 0-14.8 0-22.2-.1z"/><path id="Shape_4_" class="st0" d="M71.1 79c7.4 0 14.8 0 22.2.1-16.1 13.1-31.8 26.8-48.3 39.6 8.6-13.3 17.5-26.4 26.1-39.7z"/></g><path id="socket.io" d="M210 99.7c3 1.7 7.5 2.9 12.5 2.9 10.9 0 16.7-5.4 16.7-12.8-.1-6.1-3.5-9.9-10.9-12.5-5.2-1.9-7.2-3.1-7.2-5.7 0-2.5 2-4.3 5.7-4.3 3.6 0 6.9 1.3 8.7 2.4l2-7.3c-2.4-1.3-6.3-2.4-10.9-2.4-9.5 0-15.5 5.6-15.5 12.9-.1 4.8 3.3 9.2 11.3 12 5.1 1.8 6.7 3.2 6.7 6 0 2.7-2 4.5-6.6 4.5-3.7 0-8.2-1.5-10.5-2.9l-2 7.2zm52.7-39.9c-12.4 0-21.2 8.3-21.2 21.7 0 13.1 8.9 21.1 20.5 21.1 10.4 0 21-6.7 21-21.8.1-12.4-8.1-21-20.3-21zm-.2 7.6c7.1 0 9.9 7.3 9.9 13.7 0 8.3-4.1 14.1-10 14.1-6.3 0-10.2-6-10.2-13.9 0-6.8 2.9-13.9 10.3-13.9zm54.3 25.4c-2 .8-4.5 1.6-8.2 1.6-7.1 0-12.5-4.8-12.5-13.2-.1-7.5 4.6-13.3 12.5-13.3 3.7 0 6.1.8 7.8 1.6l1.9-7.7c-2.4-1.1-6.2-1.9-10-1.9-14.4 0-22.8 9.6-22.8 21.9 0 12.7 8.3 20.9 21.1 20.9 5.1 0 9.4-1.1 11.6-2.1l-1.4-7.8zM332.7 42h-10.4v59.8h10.4v-14l3.5-4.1 11.8 18.1h12.7l-17.3-24.2 15.2-16.8h-12.5L336.2 74c-1.1 1.4-2.3 3.2-3.3 4.8h-.2V42zm63.2 42.1c.2-.9.3-2.4.3-4.4 0-9-4.4-20-17.7-20-13.1 0-20 10.7-20 22.1 0 12.5 7.8 20.7 21.1 20.7 5.9 0 10.8-1.1 14.3-2.5l-1.5-7.2c-3.1 1.2-6.6 1.9-11.4 1.9-6.6 0-12.4-3.2-12.6-10.6h27.5zm-27.4-7.2c.4-4.2 3.1-10 9.5-10 6.9 0 8.6 6.2 8.5 10h-18zm34.3-25.4v9.3H397v7.7h5.9v19.3c0 5.4 1 9.1 3.2 11.4 1.9 2.1 5.1 3.4 8.9 3.4 3.3 0 6-.4 7.5-1l-.2-7.9c-.9.3-2.3.5-4 .5-4 0-5.3-2.6-5.3-7.6V68.5h9.9v-7.7H413V49l-10.2 2.5zm29 51.2c3.9 0 6.4-2.9 6.4-6.7 0-4-2.6-6.7-6.4-6.7-3.7 0-6.4 2.8-6.4 6.7 0 3.8 2.6 6.7 6.4 6.7zm21.6-1v-41H443v41h10.4zm-5.2-58.1c-3.5 0-5.8 2.4-5.8 5.6 0 3.1 2.3 5.6 5.7 5.6 3.6 0 5.9-2.4 5.9-5.6-.1-3.1-2.3-5.6-5.8-5.6zm31.4 16.2c-12.4 0-21.2 8.3-21.2 21.7 0 13.1 8.9 21.1 20.5 21.1 10.4 0 21-6.7 21-21.8.1-12.4-8.1-21-20.3-21zm-.2 7.6c7.1 0 9.9 7.3 9.9 13.7 0 8.3-4.1 14.1-10 14.1-6.3 0-10.2-6-10.2-13.9 0-6.8 2.9-13.9 10.3-13.9z"/></g></svg>